<svg xmlns="http://www.w3.org/2000/svg" viewBox="0 0 628.87 243.12"><g id="Layer_1" data-name="Layer 1"><text transform="translate(251.61 172.69)" style="font-size:143.17332458496094px;fill:#fff;font-family:Gilroy-ExtraBold, Gilroy;font-weight:800">EMN<tspan x="289.21" y="0" style="fill:#e63946">R</tspan></text></g><g id="Layer_2" data-name="Layer 2"><path d="M157.62,18.34" transform="translate(-2.21 -2.57)" style="fill:#1d3557"/><path d="M216.58,10.08" transform="translate(-2.21 -2.57)" style="fill:#1d3557"/><g id="Layer_2-2" data-name="Layer 2"><g id="Layer_3" data-name="Layer 3"><path d="M108.45,245.19c0-.94,2.77-33.94,13.84-39.59s18.54-9,18.54-9c4-1.79,5-6,2.22-9.39A18.57,18.57,0,0,0,130,181.29l-20.92.53a30.91,30.91,0,0,1-14.74-4.1l-16-10.24a43.6,43.6,0,0,1-11-11L62,148.28a32.47,32.47,0,0,1-4.31-14.74V104.72A21.26,21.26,0,0,0,54,93.41c-2-2.6-5.35-3.87-7.38-2.83S41.51,95,39.74,98.12s-6.35,7.35-10.16,9.43a98.92,98.92,0,0,1-12.45,5.65c-3,1-8.45,2.53-12,3.3S2,119.36,6,121.13l4.72,2.06a78.64,78.64,0,0,0,15.22,4.56l.83.14a15.07,15.07,0,0,1,10.57,8.88,19.58,19.58,0,0,1,1,3.77c0,1,1,10,1,10a31.24,31.24,0,0,0,6,14.09l.79.94a139.91,139.91,0,0,0,11,11.42L60,179.56a69.36,69.36,0,0,0,13.13,8.79l5,2.43c4,1.93,9.9,5,13.19,6.8s6.58,6.85,7.29,11.2l1.12,6.83c.7,4.34,2.18,11.39,3.26,15.65l1.58,6.18c1.09,4.26,2.81,7.75,3.83,7.75Z" transform="translate(-2.21 -2.57)" style="fill:#fff"/><path d="M108.45,245.19c0-.94,2.77-33.94,13.84-39.59s18.54-9,18.54-9c4-1.79,5-6,2.22-9.39A18.57,18.57,0,0,0,130,181.29l-20.92.53a30.91,30.91,0,0,1-14.74-4.1l-16-10.24a43.6,43.6,0,0,1-11-11L62,148.28a32.47,32.47,0,0,1-4.31-14.74V104.72A21.26,21.26,0,0,0,54,93.41c-2-2.6-5.35-3.87-7.38-2.83S41.51,95,39.74,98.12s-6.35,7.35-10.16,9.43a98.92,98.92,0,0,1-12.45,5.65c-3,1-8.45,2.53-12,3.3S2,119.36,6,121.13l4.72,2.06a78.64,78.64,0,0,0,15.22,4.56l.83.14a15.07,15.07,0,0,1,10.57,8.88,19.58,19.58,0,0,1,1,3.77c0,1,1,10,1,10a31.24,31.24,0,0,0,6,14.09l.79.94a139.91,139.91,0,0,0,11,11.42L60,179.56a69.36,69.36,0,0,0,13.13,8.79l5,2.43c4,1.93,9.9,5,13.19,6.8s6.58,6.85,7.29,11.2l1.12,6.83c.7,4.34,2.18,11.39,3.26,15.65l1.58,6.18c1.09,4.26,2.81,7.75,3.83,7.75Z" transform="translate(-2.21 -2.57)" style="fill:none;stroke:#000;stroke-miterlimit:10"/><path d="M176,154.84a18.65,18.65,0,0,1-5.07-6.45c-1-2.29-1.85-7.75-1.85-12.15V120a75.13,75.13,0,0,0-2-15.74l-1.49-5.73a32.59,32.59,0,0,0-7.85-13.22l-4-3.8a37.52,37.52,0,0,0-13.58-7.54l-12.23-3.26a85.66,85.66,0,0,0-15.77-2.35L103.25,68c-4.4-.17-9.45-.3-11.22-.3s-5.52-2.49-8.31-5.53-3.56-6.78-1.8-8.31,6.55-4.16,10.6-5.87L95.3,46.8c4-1.71,8.83-3.1,10.6-3.1s3.8-3.56,4.49-7.9l1.16-7.24c.7-4.35,1.86-11.45,2.58-15.79l.14-.82c.72-4.34,2.35-8.31,3.62-8.82s3,2.62,3.81,6.94L127,37.71a16.09,16.09,0,0,0,9,10.72l9,3.48a56.42,56.42,0,0,1,13.58,8l11.76,10a41,41,0,0,1,9.33,12.49l3.71,8.41a110.55,110.55,0,0,1,5.06,14.71c1,4,4.75,8.41,8.3,9.68A118.52,118.52,0,0,0,211.05,119l8.26,1.59c4.33.83,7.86,3,7.86,4.74s-2.9,4.26-6.46,5.53-9.87,3.45-14,4.84l-1.43.47a29.65,29.65,0,0,0-12.33,9l-3.42,4.65c-2.61,3.54-6,6.64-7.51,6.9S177.78,156.11,176,154.84Z" transform="translate(-2.21 -2.57)" style="fill:#fff"/><path d="M176,154.84a18.65,18.65,0,0,1-5.07-6.45c-1-2.29-1.85-7.75-1.85-12.15V120a75.13,75.13,0,0,0-2-15.74l-1.49-5.73a32.59,32.59,0,0,0-7.85-13.22l-4-3.8a37.52,37.52,0,0,0-13.58-7.54l-12.23-3.26a85.66,85.66,0,0,0-15.77-2.35L103.25,68c-4.4-.17-9.45-.3-11.22-.3s-5.52-2.49-8.31-5.53-3.56-6.78-1.8-8.31,6.55-4.16,10.6-5.87L95.3,46.8c4-1.71,8.83-3.1,10.6-3.1s3.8-3.56,4.49-7.9l1.16-7.24c.7-4.35,1.86-11.45,2.58-15.79l.14-.82c.72-4.34,2.35-8.31,3.62-8.82s3,2.62,3.81,6.94L127,37.71a16.09,16.09,0,0,0,9,10.72l9,3.48a56.42,56.42,0,0,1,13.58,8l11.76,10a41,41,0,0,1,9.33,12.49l3.71,8.41a110.55,110.55,0,0,1,5.06,14.71c1,4,4.75,8.41,8.3,9.68A118.52,118.52,0,0,0,211.05,119l8.26,1.59c4.33.83,7.86,3,7.86,4.74s-2.9,4.26-6.46,5.53-9.87,3.45-14,4.84l-1.43.47a29.65,29.65,0,0,0-12.33,9l-3.42,4.65c-2.61,3.54-6,6.64-7.51,6.9S177.78,156.11,176,154.84Z" transform="translate(-2.21 -2.57)" style="fill:none;stroke:#000;stroke-miterlimit:10"/></g><g id="Layer_5" data-name="Layer 5"><polygon points="95.9 133.04 43.76 44.36 125.43 110.93 95.9 133.04" style="fill:#e63946;stroke:#000;stroke-miterlimit:10"/><polygon points="125.97 111.68 177.75 201.45 96.04 133.7 125.97 111.68" style="fill:#fff;stroke:#000;stroke-miterlimit:10"/></g></g></g></svg>