<svg xmlns="http://www.w3.org/2000/svg" viewBox="0 0 377.26 405.13"><g id="Layer_1" data-name="Layer 1"><text transform="translate(0 366.47)" style="font-size:143.17332458496094px;fill:#1d3557;font-family:Gilroy-ExtraBold, Gilroy;font-weight:800">EMN<tspan x="289.21" y="0" style="fill:#e63946">R</tspan></text></g><g id="Layer_3" data-name="Layer 3"><path d="M237.26,320.5c0-.94,2.76-33.94,13.84-39.6s18.53-9,18.53-9c4-1.79,5-6,2.23-9.39a18.58,18.58,0,0,0-13.07-5.92l-20.92.53a30.79,30.79,0,0,1-14.74-4.1l-16-10.25a43.27,43.27,0,0,1-11.05-11l-5.24-8.2a32.42,32.42,0,0,1-4.3-14.74V180a21.42,21.42,0,0,0-3.69-11.32c-2-2.59-5.35-3.86-7.38-2.82s-5.15,4.43-6.93,7.54-6.34,7.35-10.15,9.43a99.62,99.62,0,0,1-12.45,5.65c-3.05,1-8.45,2.52-12,3.3s-3.16,2.86.87,4.62l4.72,2.07a77.83,77.83,0,0,0,15.21,4.55l.84.15a15.07,15.07,0,0,1,10.57,8.88,20.29,20.29,0,0,1,1,3.77c0,1,1,10,1,10a31,31,0,0,0,6,14.08l.79,1A136.44,136.44,0,0,0,186,252.3l2.84,2.53A69,69,0,0,0,202,263.66l5,2.43c4,1.93,9.89,5,13.19,6.8s6.58,6.85,7.29,11.2l1.12,6.83c.7,4.34,2.17,11.38,3.26,15.65l1.58,6.18c1.09,4.26,2.81,7.75,3.83,7.75Z" transform="translate(-58.3 -77.87)" style="fill:#1d3557"/><path d="M237.26,320.5c0-.94,2.76-33.94,13.84-39.6s18.53-9,18.53-9c4-1.79,5-6,2.23-9.39a18.58,18.58,0,0,0-13.07-5.92l-20.92.53a30.79,30.79,0,0,1-14.74-4.1l-16-10.25a43.27,43.27,0,0,1-11.05-11l-5.24-8.2a32.42,32.42,0,0,1-4.3-14.74V180a21.42,21.42,0,0,0-3.69-11.32c-2-2.59-5.35-3.86-7.38-2.82s-5.15,4.43-6.93,7.54-6.34,7.35-10.15,9.43a99.62,99.62,0,0,1-12.45,5.65c-3.05,1-8.45,2.52-12,3.3s-3.16,2.86.87,4.62l4.72,2.07a77.83,77.83,0,0,0,15.21,4.55l.84.15a15.07,15.07,0,0,1,10.57,8.88,20.29,20.29,0,0,1,1,3.77c0,1,1,10,1,10a31,31,0,0,0,6,14.08l.79,1A136.44,136.44,0,0,0,186,252.3l2.84,2.53A69,69,0,0,0,202,263.66l5,2.43c4,1.93,9.89,5,13.19,6.8s6.58,6.85,7.29,11.2l1.12,6.83c.7,4.34,2.17,11.38,3.26,15.65l1.58,6.18c1.09,4.26,2.81,7.75,3.83,7.75Z" transform="translate(-58.3 -77.87)" style="fill:none;stroke:#000;stroke-miterlimit:10"/><path d="M304.81,230.15a18.41,18.41,0,0,1-5.07-6.46c-1-2.28-1.85-7.75-1.85-12.15V195.26a75.24,75.24,0,0,0-2-15.74l-1.49-5.73a32.8,32.8,0,0,0-7.85-13.23l-4-3.79A37.63,37.63,0,0,0,269,149.23L256.74,146A87.11,87.11,0,0,0,241,143.61l-8.91-.33c-4.4-.16-9.45-.29-11.23-.29s-5.51-2.49-8.3-5.54-3.62-6.78-1.84-8.3,6.54-4.16,10.6-5.87l2.78-1.17c4-1.71,8.82-3.1,10.6-3.1s3.8-3.56,4.49-7.9l1.16-7.26c.7-4.35,1.86-11.45,2.58-15.79l.14-.82c.72-4.34,2.35-8.31,3.62-8.82s3,2.62,3.81,6.94L255.8,113a16.06,16.06,0,0,0,9,10.73l9.05,3.48a56.89,56.89,0,0,1,13.58,8l11.76,10a41.17,41.17,0,0,1,9.33,12.49l3.7,8.41a109.86,109.86,0,0,1,5.07,14.7c1,4.06,4.75,8.42,8.3,9.69a119.08,119.08,0,0,0,14.31,3.82l8.27,1.59c4.32.83,7.86,3,7.86,4.74s-2.91,4.26-6.46,5.53-9.87,3.44-14,4.83l-1.43.48a29.67,29.67,0,0,0-12.33,9l-3.42,4.64c-2.61,3.55-6,6.65-7.52,6.91S306.58,231.42,304.81,230.15Z" transform="translate(-58.3 -77.87)" style="fill:#1d3557"/><path d="M304.81,230.15a18.41,18.41,0,0,1-5.07-6.46c-1-2.28-1.85-7.75-1.85-12.15V195.26a75.24,75.24,0,0,0-2-15.74l-1.49-5.73a32.8,32.8,0,0,0-7.85-13.23l-4-3.79A37.63,37.63,0,0,0,269,149.23L256.74,146A87.11,87.11,0,0,0,241,143.61l-8.91-.33c-4.4-.16-9.45-.29-11.23-.29s-5.51-2.49-8.3-5.54-3.62-6.78-1.84-8.3,6.54-4.16,10.6-5.87l2.78-1.17c4-1.71,8.82-3.1,10.6-3.1s3.8-3.56,4.49-7.9l1.16-7.26c.7-4.35,1.86-11.45,2.58-15.79l.14-.82c.72-4.34,2.35-8.31,3.62-8.82s3,2.62,3.81,6.94L255.8,113a16.06,16.06,0,0,0,9,10.73l9.05,3.48a56.89,56.89,0,0,1,13.58,8l11.76,10a41.17,41.17,0,0,1,9.33,12.49l3.7,8.41a109.86,109.86,0,0,1,5.07,14.7c1,4.06,4.75,8.42,8.3,9.69a119.08,119.08,0,0,0,14.31,3.82l8.27,1.59c4.32.83,7.86,3,7.86,4.74s-2.91,4.26-6.46,5.53-9.87,3.44-14,4.83l-1.43.48a29.67,29.67,0,0,0-12.33,9l-3.42,4.64c-2.61,3.55-6,6.65-7.52,6.91S306.58,231.42,304.81,230.15Z" transform="translate(-58.3 -77.87)" style="fill:none;stroke:#000;stroke-miterlimit:10"/></g><g id="Layer_5" data-name="Layer 5"><path d="M226.72,236.34" transform="translate(-58.3 -77.87)" style="fill:none;stroke:#000;stroke-miterlimit:10"/><polygon points="168.61 133.06 116.47 44.38 198.14 110.95 168.61 133.06" style="fill:#e63946;stroke:#000;stroke-miterlimit:10"/><polygon points="198.68 111.7 250.46 201.47 168.74 133.72 198.68 111.7" style="fill:#fff;stroke:#000;stroke-miterlimit:10"/></g></svg>