<svg width="174" height="23" viewBox="0 0 174 23" fill="none" xmlns="http://www.w3.org/2000/svg">
<path d="M32.4167 1.91663H20.9167C19.8625 1.91663 19 2.77913 19 3.83329V19.1666C19 20.2208 19.8625 21.0833 20.9167 21.0833H32.4167C33.4708 21.0833 34.3333 20.2208 34.3333 19.1666V3.83329C34.3333 2.77913 33.4708 1.91663 32.4167 1.91663ZM20.9167 3.83329H25.7083V11.5L23.3125 10.0625L20.9167 11.5V3.83329Z" fill="#F1FAEE"/>
<path d="M66.554 10.98H60.236V13.5H63.602C63.152 14.706 62.054 15.444 60.38 15.444C57.932 15.444 56.42 13.878 56.42 11.736C56.42 9.522 58.004 7.956 60.128 7.956C61.55 7.956 62.684 8.604 63.206 9.432L65.654 8.028C64.592 6.336 62.558 5.148 60.146 5.148C56.438 5.148 53.54 8.064 53.54 11.718C53.54 15.336 56.384 18.252 60.344 18.252C63.872 18.252 66.554 15.912 66.554 12.06V10.98ZM72.6777 8.37C74.1177 8.37 75.0717 7.398 75.0717 6.12C75.0717 4.842 74.1177 3.87 72.6777 3.87C71.2737 3.87 70.2837 4.842 70.2837 6.12C70.2837 7.398 71.2737 8.37 72.6777 8.37ZM72.6777 5.508C73.1097 5.508 73.3257 5.778 73.3257 6.12C73.3257 6.462 73.1097 6.732 72.6777 6.732C72.2637 6.732 72.0477 6.462 72.0477 6.12C72.0477 5.778 72.2637 5.508 72.6777 5.508ZM74.6217 9V9.846C74.0277 9.162 73.1457 8.748 71.9397 8.748C69.5817 8.748 67.6377 10.818 67.6377 13.5C67.6377 16.182 69.5817 18.252 71.9397 18.252C73.1457 18.252 74.0277 17.838 74.6217 17.154V18H77.3217V9H74.6217ZM72.4797 15.696C71.2377 15.696 70.3377 14.85 70.3377 13.5C70.3377 12.15 71.2377 11.304 72.4797 11.304C73.7217 11.304 74.6217 12.15 74.6217 13.5C74.6217 14.85 73.7217 15.696 72.4797 15.696ZM89.0765 11.592V9H87.2225V6.48L84.5225 7.29V9H83.0825V11.592H84.5225V14.778C84.5225 17.298 85.5485 18.36 89.0765 18V15.552C87.8885 15.624 87.2225 15.552 87.2225 14.778V11.592H89.0765ZM91.9552 8.208C92.8372 8.208 93.5752 7.47 93.5752 6.588C93.5752 5.706 92.8372 4.968 91.9552 4.968C91.0732 4.968 90.3352 5.706 90.3352 6.588C90.3352 7.47 91.0732 8.208 91.9552 8.208ZM90.6052 18H93.3052V9H90.6052V18ZM95.281 18H97.981V4.86H95.281V18ZM114.537 8.748C113.259 8.748 112.431 9.216 111.927 9.936C111.423 9.18 110.631 8.748 109.569 8.748C108.363 8.748 107.571 9.216 107.157 9.828V9H104.457V18H107.157V12.924C107.157 11.862 107.661 11.232 108.561 11.232C109.425 11.232 109.857 11.808 109.857 12.708V18H112.557V12.924C112.557 11.862 113.061 11.232 113.961 11.232C114.825 11.232 115.257 11.808 115.257 12.708V18H117.957V12.474C117.957 10.224 116.607 8.748 114.537 8.748ZM121.153 8.208C122.035 8.208 122.773 7.47 122.773 6.588C122.773 5.706 122.035 4.968 121.153 4.968C120.271 4.968 119.533 5.706 119.533 6.588C119.533 7.47 120.271 8.208 121.153 8.208ZM119.803 18H122.503V9H119.803V18ZM129.752 8.748C128.564 8.748 127.664 9.18 127.178 9.846V9H124.478V18H127.178V13.086C127.178 11.808 127.862 11.232 128.852 11.232C129.716 11.232 130.418 11.754 130.418 12.87V18H133.118V12.474C133.118 10.044 131.57 8.748 129.752 8.748ZM142.028 11.628C142.028 11.304 142.316 11.124 142.784 11.124C143.378 11.124 143.738 11.448 143.99 11.916L146.294 10.674C145.538 9.396 144.242 8.748 142.784 8.748C140.912 8.748 139.256 9.738 139.256 11.7C139.256 14.814 143.684 14.292 143.684 15.282C143.684 15.642 143.36 15.84 142.712 15.84C141.92 15.84 141.416 15.462 141.182 14.778L138.842 16.11C139.544 17.568 140.912 18.252 142.712 18.252C144.656 18.252 146.456 17.37 146.456 15.3C146.456 11.97 142.028 12.654 142.028 11.628ZM149.154 8.208C150.036 8.208 150.774 7.47 150.774 6.588C150.774 5.706 150.036 4.968 149.154 4.968C148.272 4.968 147.534 5.706 147.534 6.588C147.534 7.47 148.272 8.208 149.154 8.208ZM147.804 18H150.504V9H147.804V18ZM159.014 5.4V9.846C158.42 9.162 157.538 8.748 156.332 8.748C153.974 8.748 152.03 10.818 152.03 13.5C152.03 16.182 153.974 18.252 156.332 18.252C157.538 18.252 158.42 17.838 159.014 17.154V18H161.714V5.4H159.014ZM156.872 15.696C155.63 15.696 154.73 14.85 154.73 13.5C154.73 12.15 155.63 11.304 156.872 11.304C158.114 11.304 159.014 12.15 159.014 13.5C159.014 14.85 158.114 15.696 156.872 15.696ZM166.107 14.58H172.497C172.569 14.238 172.605 13.878 172.605 13.5C172.605 10.782 170.661 8.748 168.033 8.748C165.189 8.748 163.245 10.818 163.245 13.5C163.245 16.182 165.153 18.252 168.231 18.252C169.941 18.252 171.273 17.622 172.155 16.398L169.995 15.156C169.635 15.552 169.005 15.84 168.267 15.84C167.277 15.84 166.449 15.516 166.107 14.58ZM166.053 12.564C166.305 11.646 166.989 11.142 168.015 11.142C168.825 11.142 169.635 11.52 169.923 12.564H166.053Z" fill="#F1FAEE"/>
</svg>
