<svg width="135" height="25" viewBox="0 0 135 25" fill="none" xmlns="http://www.w3.org/2000/svg">
<path d="M60.092 20.252C63.71 20.252 66.644 17.408 66.644 13.7C66.644 9.992 63.71 7.148 60.092 7.148C56.474 7.148 53.54 9.992 53.54 13.7C53.54 17.408 56.474 20.252 60.092 20.252ZM60.092 17.444C58.04 17.444 56.42 15.95 56.42 13.7C56.42 11.45 58.04 9.956 60.092 9.956C62.144 9.956 63.764 11.45 63.764 13.7C63.764 15.95 62.144 17.444 60.092 17.444ZM78.2555 10.748C76.9775 10.748 76.1495 11.216 75.6455 11.936C75.1415 11.18 74.3495 10.748 73.2875 10.748C72.0815 10.748 71.2895 11.216 70.8755 11.828V11H68.1755V20H70.8755V14.924C70.8755 13.862 71.3795 13.232 72.2795 13.232C73.1435 13.232 73.5755 13.808 73.5755 14.708V20H76.2755V14.924C76.2755 13.862 76.7795 13.232 77.6795 13.232C78.5435 13.232 78.9755 13.808 78.9755 14.708V20H81.6755V14.474C81.6755 12.224 80.3255 10.748 78.2555 10.748ZM90.9913 17.228V14.996H95.4913V12.26H90.9913V10.172H95.9413V7.4H88.1113V20H96.0312V17.228H90.9913ZM110.256 7.4H107.376L103.956 12.998L100.536 7.4H97.6562V20H100.536V12.674L103.794 18.02H104.118L107.376 12.674V20H110.256V7.4ZM119.442 7.4V14.24L114.582 7.4H112.422V20H115.302V13.16L120.162 20H122.322V7.4H119.442ZM131.104 20H134.2L131.518 15.374C132.904 14.672 133.84 13.268 133.84 11.72C133.84 9.326 131.914 7.4 129.52 7.4H124.48V20H127.36V15.86H128.728L131.104 20ZM127.36 10.1H129.52C130.312 10.1 130.96 10.802 130.96 11.72C130.96 12.638 130.312 13.34 129.52 13.34H127.36V10.1Z" fill="#F1FAEE"/>
<path d="M27 4.83337C21.94 4.83337 17.8334 8.94004 17.8334 14C17.8334 19.06 21.94 23.1667 27 23.1667C32.06 23.1667 36.1667 19.06 36.1667 14C36.1667 8.94004 32.06 4.83337 27 4.83337ZM27.9167 18.5834H26.0834V13.0834H27.9167V18.5834ZM27.9167 11.25H26.0834V9.41671H27.9167V11.25Z" fill="#F1FAEE"/>
</svg>
