<?xml version="1.0" encoding="utf-8"?>
<!-- Generator: Adobe Illustrator 24.2.1, SVG Export Plug-In . SVG Version: 6.00 Build 0)  -->
<svg version="1.1" xmlns="http://www.w3.org/2000/svg" xmlns:xlink="http://www.w3.org/1999/xlink" x="0px" y="0px"
	 viewBox="0 0 500 500" style="enable-background:new 0 0 500 500;" xml:space="preserve">
<style type="text/css">
	.st0{fill:#1D3557;}
	.st1{fill:#E63946;}
	.st2{display:none;}
	.st3{fill:none;stroke:#000000;stroke-miterlimit:10;}
	.st4{display:none;fill:#E63946;stroke:#000000;stroke-miterlimit:10;}
	.st5{display:inline;fill:#457B9D;}
	.st6{display:inline;fill:none;stroke:#000000;stroke-miterlimit:10;}
	.st7{display:none;fill:none;stroke:#000000;stroke-miterlimit:10;}
	.st8{fill:#E63946;stroke:#000000;stroke-miterlimit:10;}
	.st9{fill:#FFFFFF;stroke:#000000;stroke-miterlimit:10;}
</style>
<g id="Layer_1">
	<g>
		<path class="st0" d="M129.9,422.3v22h-63V344.1h62.3v22H89.8v16.6h35.8v21.8H89.8v17.8H129.9z"/>
		<path class="st0" d="M243,444.3h-22.9v-58.3l-25.9,42.5h-2.6l-25.9-42.5v58.3h-22.9V344.1h22.9l27.2,44.5l27.2-44.5H243V444.3z"/>
		<path class="st0" d="M338.9,344.1v100.2h-17.2l-38.7-54.4v54.4h-22.9V344.1h17.2l38.7,54.4v-54.4H338.9z"/>
		<path class="st1" d="M389.9,411.4H379v32.9h-22.9V344.1h40.1c19,0,34.4,15.3,34.4,34.4c0,12.3-7.4,23.5-18.5,29.1l21.3,36.8h-24.6
			L389.9,411.4z M379,391.4h17.2c6.3,0,11.5-5.6,11.5-12.9s-5.2-12.9-11.5-12.9H379V391.4z"/>
	</g>
</g>
<g id="Layer_4" class="st2">
	
		<image style="display:inline;overflow:visible;enable-background:new    ;" width="261" height="275" xlink:href="38F8743.png"  transform="matrix(1 0 0 1 112 34)">
	</image>
</g>
<g id="Layer_3">
	<g>
		<g>
			<path class="st0" d="M237.3,320.5c0-0.9,2.8-33.9,13.8-39.6c11.1-5.7,18.5-9,18.5-9c4-1.8,5-6,2.2-9.4c-2.8-3.4-8.7-6-13.1-5.9
				l-20.9,0.5c-4.4,0.1-11-1.7-14.7-4.1l-16-10.2c-3.7-2.4-8.7-7.3-11-11l-5.2-8.2c-2.4-3.7-4.3-10.3-4.3-14.7v-14.2
				c0-4.4,0-11,0-14.6s-1.7-8.7-3.7-11.3s-5.4-3.9-7.4-2.8c-2,1-5.1,4.4-6.9,7.5c-1.8,3.1-6.3,7.4-10.2,9.4s-9.4,4.6-12.5,5.7
				c-3,1-8.4,2.5-12,3.3s-3.2,2.9,0.9,4.6l4.7,2.1c4,1.8,10.9,3.8,15.2,4.6l0.8,0.1c4.3,0.7,9.1,4.7,10.6,8.9c0,0,1,2.8,1,3.8
				c0,0.9,1,10,1,10c0.5,4.4,3.2,10.7,6,14.1l0.8,0.9c2.8,3.4,7.8,8.5,11.1,11.5l2.8,2.5c3.3,2.9,9.2,6.9,13.2,8.8l5,2.4
				c4,1.9,9.9,5,13.2,6.8c3.3,1.8,6.6,6.9,7.3,11.2l1.1,6.8c0.7,4.3,2.2,11.4,3.3,15.6l1.6,6.2C234.5,317,236.2,320.5,237.3,320.5
				L237.3,320.5z"/>
			<path class="st3" d="M237.3,320.5c0-0.9,2.8-33.9,13.8-39.6c11.1-5.7,18.5-9,18.5-9c4-1.8,5-6,2.2-9.4c-2.8-3.4-8.7-6-13.1-5.9
				l-20.9,0.5c-4.4,0.1-11-1.7-14.7-4.1l-16-10.2c-3.7-2.4-8.7-7.3-11-11l-5.2-8.2c-2.4-3.7-4.3-10.3-4.3-14.7v-14.2
				c0-4.4,0-11,0-14.6s-1.7-8.7-3.7-11.3s-5.4-3.9-7.4-2.8c-2,1-5.1,4.4-6.9,7.5c-1.8,3.1-6.3,7.4-10.2,9.4s-9.4,4.6-12.5,5.7
				c-3,1-8.4,2.5-12,3.3s-3.2,2.9,0.9,4.6l4.7,2.1c4,1.8,10.9,3.8,15.2,4.6l0.8,0.1c4.3,0.7,9.1,4.7,10.6,8.9c0,0,1,2.8,1,3.8
				c0,0.9,1,10,1,10c0.5,4.4,3.2,10.7,6,14.1l0.8,0.9c2.8,3.4,7.8,8.5,11.1,11.5l2.8,2.5c3.3,2.9,9.2,6.9,13.2,8.8l5,2.4
				c4,1.9,9.9,5,13.2,6.8c3.3,1.8,6.6,6.9,7.3,11.2l1.1,6.8c0.7,4.3,2.2,11.4,3.3,15.6l1.6,6.2C234.5,317,236.2,320.5,237.3,320.5
				L237.3,320.5z"/>
		</g>
		<g>
			<path class="st0" d="M304.8,230.2c-1.8-1.3-4.1-4.2-5.1-6.5c-1-2.3-1.8-7.8-1.8-12.2v-16.3c0-4.4-0.9-11.5-2-15.7l-1.5-5.7
				c-1.1-4.3-4.6-10.2-7.8-13.2l-4-3.8c-3.2-3-9.3-6.4-13.6-7.5l-12.2-3.3c-4.3-1.1-11.3-2.2-15.7-2.4l-8.9-0.3
				c-4.4-0.2-9.4-0.3-11.2-0.3s-5.5-2.5-8.3-5.5s-3.6-6.8-1.8-8.3s6.5-4.2,10.6-5.9l2.8-1.2c4.1-1.7,8.8-3.1,10.6-3.1
				s3.8-3.6,4.5-7.9l1.2-7.3c0.7-4.3,1.9-11.5,2.6-15.8l0.1-0.8c0.7-4.3,2.4-8.3,3.6-8.8c1.3-0.5,3,2.6,3.8,6.9l5.3,27.6
				c0.8,4.3,4.9,9.1,9,10.7l9,3.5c4.1,1.6,10.2,5.2,13.6,8l11.8,10c3.4,2.8,7.6,8.5,9.3,12.5l3.7,8.4c1.8,4,4.1,10.6,5.1,14.7
				c1,4.1,4.8,8.4,8.3,9.7c3.6,1.3,10,3,14.3,3.8l8.3,1.6c4.3,0.8,7.9,3,7.9,4.7s-2.9,4.3-6.5,5.5c-3.6,1.3-9.9,3.4-14,4.8l-1.4,0.5
				c-4.2,1.4-9.7,5.4-12.3,9l-3.4,4.6c-2.6,3.5-6,6.6-7.5,6.9C309.3,232.2,306.6,231.4,304.8,230.2z"/>
			<path class="st3" d="M304.8,230.2c-1.8-1.3-4.1-4.2-5.1-6.5c-1-2.3-1.8-7.8-1.8-12.2v-16.3c0-4.4-0.9-11.5-2-15.7l-1.5-5.7
				c-1.1-4.3-4.6-10.2-7.8-13.2l-4-3.8c-3.2-3-9.3-6.4-13.6-7.5l-12.2-3.3c-4.3-1.1-11.3-2.2-15.7-2.4l-8.9-0.3
				c-4.4-0.2-9.4-0.3-11.2-0.3s-5.5-2.5-8.3-5.5s-3.6-6.8-1.8-8.3s6.5-4.2,10.6-5.9l2.8-1.2c4.1-1.7,8.8-3.1,10.6-3.1
				s3.8-3.6,4.5-7.9l1.2-7.3c0.7-4.3,1.9-11.5,2.6-15.8l0.1-0.8c0.7-4.3,2.4-8.3,3.6-8.8c1.3-0.5,3,2.6,3.8,6.9l5.3,27.6
				c0.8,4.3,4.9,9.1,9,10.7l9,3.5c4.1,1.6,10.2,5.2,13.6,8l11.8,10c3.4,2.8,7.6,8.5,9.3,12.5l3.7,8.4c1.8,4,4.1,10.6,5.1,14.7
				c1,4.1,4.8,8.4,8.3,9.7c3.6,1.3,10,3,14.3,3.8l8.3,1.6c4.3,0.8,7.9,3,7.9,4.7s-2.9,4.3-6.5,5.5c-3.6,1.3-9.9,3.4-14,4.8l-1.4,0.5
				c-4.2,1.4-9.7,5.4-12.3,9l-3.4,4.6c-2.6,3.5-6,6.6-7.5,6.9C309.3,232.2,306.6,231.4,304.8,230.2z"/>
		</g>
	</g>
</g>
<g id="Layer_5">
	<path class="st3" d="M226.7,236.3"/>
	<polygon class="st4" points="195.9,209.2 194.9,189.5 199.6,191.8 199.9,209.2 	"/>
	<g class="st2">
		<path class="st5" d="M191.9,187.5c-0.5-0.2-0.5-0.6,0-0.9l46.2-22.5c0.5-0.2,1.3-0.3,1.8-0.1l51.1,21.4c0.5,0.2,0.5,0.6,0,0.8
			l-48.7,25c-0.5,0.3-1.3,0.3-1.8,0l-42.5-20.8c-0.5-0.2-1.3-0.6-1.8-0.9L191.9,187.5z"/>
		<path class="st6" d="M191.9,187.5c-0.5-0.2-0.5-0.6,0-0.9l46.2-22.5c0.5-0.2,1.3-0.3,1.8-0.1l51.1,21.4c0.5,0.2,0.5,0.6,0,0.8
			l-48.7,25c-0.5,0.3-1.3,0.3-1.8,0l-42.5-20.8c-0.5-0.2-1.3-0.6-1.8-0.9L191.9,187.5z"/>
	</g>
	<g class="st2">
		<path class="st5" d="M211.9,202.8c0-0.6,0.4-0.8,0.9-0.6l27.8,13.9c0.5,0.2,1.3,0.2,1.8,0l26.7-13.4c0.5-0.2,0.9,0,0.9,0.6
			l-0.2,23.3c0,0.5-0.5,1-1,1h-26.3c-0.6,0-1.4,0-2,0h-27.6c-0.6,0-1-0.4-1-1V202.8z"/>
		<path class="st6" d="M211.9,202.8c0-0.6,0.4-0.8,0.9-0.6l27.8,13.9c0.5,0.2,1.3,0.2,1.8,0l26.7-13.4c0.5-0.2,0.9,0,0.9,0.6
			l-0.2,23.3c0,0.5-0.5,1-1,1h-26.3c-0.6,0-1.4,0-2,0h-27.6c-0.6,0-1-0.4-1-1V202.8z"/>
	</g>
	<path class="st7" d="M202.1,189.5"/>
	<polygon class="st8" points="226.9,210.9 174.8,122.3 256.4,188.8 	"/>
	<polygon class="st9" points="257,189.6 308.8,279.3 227,211.6 	"/>
	<g>
	</g>
	<g>
	</g>
	<g>
	</g>
	<g>
	</g>
	<g>
	</g>
	<g>
	</g>
	<g>
	</g>
	<g>
	</g>
	<g>
	</g>
	<g>
	</g>
	<g>
	</g>
</g>
</svg>
